<?xml version="1.0" encoding="UTF-8"?>
<svg viewBox="0 0 400 303" version="1.1"
    xmlns="http://www.w3.org/2000/svg"
    xmlns:xlink="http://www.w3.org/1999/xlink">
    <title>Dear 2020 Logo</title>
    <g id="logo" stroke="none" stroke-width="1">
        <path d="M379.004374,303 C380.75401,302.317073 382.625148,301.073171 384.617788,299.268293 C386.610428,297.463415 388.287162,295.97561 389.64799,294.804878 C389.939596,293.439024 390.571409,292.04878 391.543428,290.634146 C392.515448,289.219512 393.341665,287.780488 394.022079,286.317073 C394.508089,285.341463 394.823995,284.780488 394.969798,284.634146 L394.969798,284.634146 L395.261404,284.341463 C395.310005,284.292683 395.407207,284.146341 395.55301,283.902439 C395.698813,283.658537 395.966118,283 396.354926,281.926829 C396.54933,281.439024 396.816635,281.170732 397.156842,281.121951 C397.497049,281.073171 397.715754,280.804878 397.812956,280.317073 C397.910158,280.121951 397.861557,279.829268 397.667153,279.439024 C397.472749,279.04878 397.424148,278.756098 397.52135,278.560976 C397.715754,277.878049 397.958759,277.463415 398.250365,277.317073 C398.54197,277.170732 398.736374,276.707317 398.833576,275.926829 C398.833576,275.439024 398.906478,274.634146 399.052281,273.512195 C399.198084,272.390244 399.51399,271.585366 400,271.097561 C399.708394,269.439024 399.48969,267.853659 399.343887,266.341463 C399.198084,264.829268 398.590571,263.097561 397.52135,261.146341 C396.938138,261.04878 395.966118,260.756098 394.605291,260.268293 C393.244463,259.780488 391.786433,259.219512 390.231202,258.585366 C388.67597,257.95122 387.19364,257.317073 385.784212,256.682927 C384.374783,256.04878 383.378463,255.487805 382.795251,255 C382.503645,255.292683 382.212039,255.682927 381.920433,256.170732 C381.628827,256.658537 381.28862,257.073171 380.899813,257.414634 C380.511005,257.756098 380.122197,258 379.733389,258.146341 C379.344581,258.292683 378.955773,258.170732 378.566965,257.780488 C377.886551,260.707317 377.181837,263.756098 376.452822,266.926829 C375.723808,270.097561 374.87329,273.170732 373.901271,276.146341 C372.929251,279.121951 371.787128,281.902439 370.474901,284.487805 C369.162674,287.073171 367.631743,289.292683 365.882108,291.146341 C364.812886,292.219512 364.715684,293.390244 365.590502,294.658537 C366.46532,295.926829 367.753246,297.097561 369.45428,298.170732 C371.155315,299.243902 372.953551,300.219512 374.84899,301.097561 C376.744428,301.97561 378.129556,302.609756 379.004374,303 Z" id=","></path>
        <path d="M24.9019737,270.32 C34.5015895,269.271068 44.1012053,267.697671 53.7008211,265.599808 C63.3004369,263.501945 72.7099613,261.737833 81.9293943,260.307472 C82.1194857,259.63997 82.5234299,259.187022 83.141227,258.948629 C83.759024,258.710235 84.1629683,258.209609 84.3530597,257.446749 C85.7787452,258.304966 87.3707607,258.352645 89.1291061,257.589786 C90.8874516,256.826926 92.3131371,255.706477 93.4061627,254.228437 C94.4991883,252.750397 95.0219396,251.15316 94.9744168,249.436727 C94.9268939,247.720293 93.7625841,246.289932 91.4814872,245.145643 C91.4814872,243.905997 91.410203,243.04778 91.2676344,242.570993 C91.1250659,242.094206 91.1963501,241.331347 91.4814872,240.282415 C90.1508474,239.805628 89.176629,238.947412 88.5588319,237.707765 C87.9410349,236.468119 87.0143393,235.609902 85.7787452,235.133115 C83.4026027,234.847043 80.907653,234.96624 78.2938962,235.490705 C75.6801394,236.015171 72.9475755,236.849549 70.0962045,237.993837 C66.769605,237.803123 63.4430054,238.065356 60.1164059,238.780536 C56.7898064,239.495717 53.7483439,240.330094 50.9920186,241.283668 C48.9960589,241.188311 47.0713834,241.283668 45.2179923,241.56974 C43.3646011,241.855813 41.5587328,242.141885 39.8003873,242.427957 C38.0420418,242.714029 36.3312192,242.904744 34.6679195,243.000102 C33.0046197,243.095459 31.3175585,242.857065 29.6067359,242.284921 C30.9373757,241.331347 32.0066398,240.234737 32.8145283,238.99509 C33.6224167,237.755444 34.644158,236.611155 35.8797521,235.562223 C37.5905748,234.036505 39.4914888,232.677662 41.5824942,231.485694 C43.6734996,230.293726 45.5744136,228.934883 47.2852363,227.409165 C47.6654191,227.123093 47.9030333,226.670145 47.998079,226.050322 C48.0931247,225.430498 48.330739,224.929872 48.7109218,224.548442 C50.3266987,223.022724 52.2276127,221.68772 54.4136638,220.543431 C56.599715,219.399142 58.6431975,218.01646 60.5441116,216.395384 C64.0608025,213.534661 67.553732,210.364027 71.0229001,206.883482 C74.4920682,203.402936 77.1771092,199.135692 79.0780233,194.081749 C78.7928862,191.888529 78.2701348,189.814505 77.5097692,187.859678 C76.7494036,185.904851 75.8464694,183.973864 74.8009667,182.066716 C72.6149156,181.208499 70.7615244,179.992692 69.2407932,178.419295 C67.720062,176.845897 66.7220821,174.724195 66.2468536,172.054187 C62.2549342,169.098108 57.6927405,166.976405 52.5602727,165.68908 C47.4278048,164.401755 42.1052456,163.710414 36.5925949,163.615056 C31.0799442,163.519699 25.6148164,163.877289 20.1972115,164.687827 C14.7796065,165.498365 9.83723006,166.523457 5.37008211,167.763104 C4.5146708,168.812035 3.77806662,169.956324 3.16026956,171.195971 C2.5424725,172.435617 1.85339117,173.675263 1.09302556,174.91491 C1.47320837,175.868484 1.66329977,177.084291 1.66329977,178.562331 C1.66329977,180.040371 1.71082262,181.589929 1.80586832,183.211005 C1.90091402,184.832081 2.1622897,186.405478 2.58999535,187.931196 C3.01770101,189.456915 3.80182804,190.696561 4.94237645,191.650135 C6.93833618,192.317637 8.95805732,192.699067 11.0015399,192.794424 C13.0450225,192.889782 14.8271294,193.31889 16.3478606,194.081749 C18.3438203,193.70032 20.67244,193.128175 23.3337196,192.365316 C25.9949992,191.602457 28.8463703,190.958794 31.8878327,190.434328 C34.9292951,189.909863 38.0182804,189.64763 41.1547885,189.64763 C44.2912967,189.64763 47.2852363,190.172096 50.1366073,191.221027 C47.9505562,193.414248 45.5268908,195.392914 42.8656112,197.157026 C40.2043315,198.921138 37.8757119,201.04284 35.8797521,203.522133 C29.0364617,208.003932 22.9297754,213.129392 17.5596933,218.898516 C12.1896112,224.667639 7.03338188,230.698995 2.09100542,236.992585 C1.33063981,238.99509 0.760365608,241.355186 0.380182804,244.072872 C0,246.790559 -0.095045701,249.579763 0.095045701,252.440485 C0.285137103,255.301208 0.879172735,258.018894 1.8771526,260.593544 C2.87513246,263.168194 4.37210225,265.313736 6.36806197,267.030169 C11.3104384,268.937318 17.488409,270.033928 24.9019737,270.32 Z M115.541178,273.014652 C119.53059,273.967155 122.973833,274.229093 125.870906,273.800467 C128.767979,273.37184 131.783785,272.490775 134.918323,271.15727 C136.153141,271.347771 137.577931,271.276333 139.192693,270.942957 C140.807455,270.609581 142.445964,270.157142 144.108219,269.58564 C145.770474,269.014138 147.385236,268.323573 148.952505,267.513945 C150.519774,266.704317 151.873325,265.918502 153.013157,265.156499 C154.437947,264.775498 155.83899,264.418309 157.216287,264.084933 C158.593584,263.751557 159.852149,263.203867 160.991981,262.441864 C161.086967,262.346614 161.183712,262.2496 161.282216,262.150822 L162.548696,260.880817 C162.773848,260.655039 163.006036,260.422205 163.24526,260.182315 L163.98404,259.441479 C165.123872,258.298475 166.239958,257.250721 167.332297,256.298218 C168.424636,255.345714 169.398242,254.559899 170.253116,253.940772 C171.10799,253.321645 171.630413,253.059706 171.820385,253.154957 C172.960217,252.392954 173.95757,251.24995 174.812444,249.725945 C175.667318,248.201939 176.355967,246.535058 176.87839,244.725302 C177.400813,242.915546 177.733264,241.034352 177.875743,239.08172 C178.018222,237.129088 177.994476,235.295519 177.804504,233.581013 C177.614532,232.247508 177.305827,230.961629 176.87839,229.723374 C176.450953,228.48512 176.023516,227.223053 175.596079,225.937173 C175.168642,224.651294 174.788698,223.341602 174.456247,222.008097 C174.123796,220.674592 174.052556,219.293462 174.242528,217.864707 C171.772892,213.292691 169.564468,208.458737 167.617255,203.362844 L167.125009,202.093335 C165.300157,197.454843 163.255814,192.996432 160.991981,188.718105 C161.276939,188.146603 161.419418,187.3846 161.419418,186.432097 C161.324432,185.765344 161.015727,185.384343 160.493304,185.289093 C159.970881,185.193842 159.70967,184.765216 159.70967,184.003213 C160.754516,183.526961 161.443164,182.622083 161.775615,181.288579 C162.108066,179.955074 162.511757,178.716819 162.986687,177.573815 C162.796715,176.811813 162.582996,176.216498 162.345531,175.787872 C162.108066,175.359245 161.894348,174.930619 161.704376,174.501992 C161.514404,174.073366 161.324432,173.620927 161.13446,173.144675 C160.944488,172.668423 160.754516,172.001671 160.564544,171.144418 C160.1846,171.049167 159.923388,171.096793 159.780909,171.287293 C159.63843,171.477794 159.377219,171.573044 158.997275,171.573044 C158.807303,170.525291 158.427359,169.69185 157.857443,169.072723 C157.287527,168.453596 156.670118,167.882094 156.005216,167.358217 C155.340314,166.83434 154.746651,166.239026 154.224228,165.572273 C153.701805,164.905521 153.393101,163.953017 153.298115,162.714763 C152.253269,161.476509 150.970958,160.738319 149.451181,160.500193 C147.931405,160.262067 146.554108,159.762003 145.31929,159 C143.989486,160.047754 142.992133,161.000257 142.327231,161.85751 C141.662329,162.714763 140.902441,163.953017 140.047567,165.572273 C139.002721,165.762774 138.19534,165.834212 137.625424,165.786586 C137.055508,165.738961 136.29562,165.810399 135.34576,166.0009 C134.110942,167.810656 133.066096,169.310849 132.211222,170.501478 C131.356348,171.692107 129.979051,172.811299 128.079331,173.859052 L128.079331,173.859052 L128.079331,175.716434 C127.224457,176.002185 126.488315,176.406999 125.870906,176.930876 C125.253497,177.454753 124.659835,178.002442 124.089919,178.573944 C123.520003,179.145446 122.902593,179.693135 122.237691,180.217012 C121.572789,180.740889 120.812901,181.098078 119.958027,181.288579 C119.578083,182.145832 119.103153,182.860209 118.533237,183.431711 C117.963321,184.003213 117.369659,184.574715 116.75225,185.146217 C116.134841,185.717719 115.541178,186.313034 114.971262,186.932161 C114.401346,187.551288 113.926416,188.289478 113.546472,189.146731 C112.976556,189.337232 112.525373,189.670608 112.192922,190.14686 C111.860471,190.623111 111.52802,191.099363 111.195569,191.575615 C110.863118,192.051866 110.50692,192.45668 110.126976,192.790057 C109.747032,193.123433 109.272102,193.147245 108.702186,192.861494 C105.947592,196.576257 103.098012,200.457709 100.153446,204.505848 C97.2088795,208.553987 94.5730179,212.91169 92.2458609,217.578956 C89.9187038,222.246223 88.1377162,227.342116 86.9028982,232.866635 C85.6680801,238.391155 85.4306151,244.534801 86.1905031,251.297575 C87.3303352,254.536087 88.8026182,257.584097 90.6073523,260.441607 C92.4120864,263.299117 94.5255249,265.775626 96.947668,267.871134 C99.3698111,269.966641 102.148152,271.490646 105.28269,272.44315 C108.417228,273.395653 111.836724,273.586154 115.541178,273.014652 Z M120.945859,247.137637 C118.695641,247.421313 116.4933,247.374034 114.338836,246.995798 C112.184372,246.617563 110.341108,245.624696 108.809045,244.017196 C108.904799,241.180432 109.311753,238.698263 110.029908,236.57069 C110.748063,234.443117 111.609848,232.433743 112.615265,230.542567 C113.620681,228.651391 114.650036,226.807494 115.70333,225.010877 C116.756623,223.214259 117.666286,221.181245 118.432317,218.911834 C118.911087,218.628158 119.198349,218.557238 119.294103,218.699077 C119.389857,218.840915 119.629242,218.769996 120.012258,218.486319 C122.118844,215.082202 124.512693,212.07996 127.193804,209.479593 C129.874915,206.879226 132.556025,204.20794 135.237136,201.465735 C136.290429,202.411323 137.415538,202.978676 138.612463,203.167793 C139.809387,203.356911 140.647234,202.505882 141.126004,200.614706 C141.700528,201.276617 142.227174,201.371176 142.705944,200.898382 C143.184714,200.425588 143.519853,199.952794 143.711361,199.48 C145.62644,203.073235 147.326072,206.973785 148.810258,211.181652 C150.294445,215.389519 152.041954,219.290069 154.052787,222.883304 C154.052787,224.112568 154.100664,224.987237 154.196418,225.50731 C154.292172,226.027384 154.531557,226.807494 154.914573,227.847641 C154.914573,229.45514 154.603373,230.684405 153.980972,231.535434 C153.358571,232.386463 152.855863,233.42661 152.472847,234.655875 C149.408721,236.641609 146.464287,238.603705 143.639545,240.54216 C140.814804,242.480616 137.822493,243.638961 134.662612,244.017196 C133.992334,243.922637 133.657196,244.300873 133.657196,245.151902 C131.837871,245.246461 129.827038,245.530137 127.624697,246.002931 C125.422356,246.475725 123.196076,246.85396 120.945859,247.137637 Z M213.934637,270.32 C223.534253,269.271068 233.133869,267.697671 242.733484,265.599808 C252.3331,263.501945 261.742625,261.737833 270.962058,260.307472 C271.152149,259.63997 271.556093,259.187022 272.17389,258.948629 C272.791687,258.710235 273.195632,258.209609 273.385723,257.446749 C274.811408,258.304966 276.403424,258.352645 278.161769,257.589786 C279.920115,256.826926 281.3458,255.706477 282.438826,254.228437 C283.531852,252.750397 284.054603,251.15316 284.00708,249.436727 C283.959557,247.720293 282.795247,246.289932 280.514151,245.145643 C280.514151,243.905997 280.442866,243.04778 280.300298,242.570993 C280.157729,242.094206 280.229013,241.331347 280.514151,240.282415 C279.183511,239.805628 278.209292,238.947412 277.591495,237.707765 C276.973698,236.468119 276.047003,235.609902 274.811408,235.133115 C272.435266,234.847043 269.940316,234.96624 267.32656,235.490705 C264.712803,236.015171 261.980239,236.849549 259.128868,237.993837 C255.802268,237.803123 252.475669,238.065356 249.149069,238.780536 C245.82247,239.495717 242.781007,240.330094 240.024682,241.283668 C238.028722,241.188311 236.104047,241.283668 234.250656,241.56974 C232.397264,241.855813 230.591396,242.141885 228.833051,242.427957 C227.074705,242.714029 225.363883,242.904744 223.700583,243.000102 C222.037283,243.095459 220.350222,242.857065 218.639399,242.284921 C219.970039,241.331347 221.039303,240.234737 221.847192,238.99509 C222.65508,237.755444 223.676821,236.611155 224.912415,235.562223 C226.623238,234.036505 228.524152,232.677662 230.615158,231.485694 C232.706163,230.293726 234.607077,228.934883 236.3179,227.409165 C236.698082,227.123093 236.935697,226.670145 237.030742,226.050322 C237.125788,225.430498 237.363402,224.929872 237.743585,224.548442 C239.359362,223.022724 241.260276,221.68772 243.446327,220.543431 C245.632378,219.399142 247.675861,218.01646 249.576775,216.395384 C253.093466,213.534661 256.586395,210.364027 260.055563,206.883482 C263.524732,203.402936 266.209773,199.135692 268.110687,194.081749 C267.825549,191.888529 267.302798,189.814505 266.542433,187.859678 C265.782067,185.904851 264.879133,183.973864 263.83363,182.066716 C261.647579,181.208499 259.794188,179.992692 258.273457,178.419295 C256.752725,176.845897 255.754745,174.724195 255.279517,172.054187 C251.287597,169.098108 246.725404,166.976405 241.592936,165.68908 C236.460468,164.401755 231.137909,163.710414 225.625258,163.615056 C220.112608,163.519699 214.64748,163.877289 209.229875,164.687827 C203.81227,165.498365 198.869893,166.523457 194.402745,167.763104 C193.547334,168.812035 192.81073,169.956324 192.192933,171.195971 C191.575136,172.435617 190.886054,173.675263 190.125689,174.91491 C190.505872,175.868484 190.695963,177.084291 190.695963,178.562331 C190.695963,180.040371 190.743486,181.589929 190.838532,183.211005 C190.933577,184.832081 191.194953,186.405478 191.622659,187.931196 C192.050364,189.456915 192.834491,190.696561 193.97504,191.650135 C195.970999,192.317637 197.990721,192.699067 200.034203,192.794424 C202.077686,192.889782 203.859793,193.31889 205.380524,194.081749 C207.376484,193.70032 209.705103,193.128175 212.366383,192.365316 C215.027663,191.602457 217.879034,190.958794 220.920496,190.434328 C223.961958,189.909863 227.050944,189.64763 230.187452,189.64763 C233.32396,189.64763 236.3179,190.172096 239.169271,191.221027 C236.983219,193.414248 234.559554,195.392914 231.898274,197.157026 C229.236995,198.921138 226.908375,201.04284 224.912415,203.522133 C218.069125,208.003932 211.962439,213.129392 206.592357,218.898516 C201.222274,224.667639 196.066045,230.698995 191.123669,236.992585 C190.363303,238.99509 189.793029,241.355186 189.412846,244.072872 C189.032663,246.790559 188.937618,249.579763 189.127709,252.440485 C189.3178,255.301208 189.911836,258.018894 190.909816,260.593544 C191.907796,263.168194 193.404766,265.313736 195.400725,267.030169 C200.343102,268.937318 206.521072,270.033928 213.934637,270.32 Z M304.573842,273.014652 C308.563254,273.967155 312.006496,274.229093 314.903569,273.800467 C317.800643,273.37184 320.816448,272.490775 323.950986,271.15727 C325.185804,271.347771 326.610594,271.276333 328.225356,270.942957 C329.840118,270.609581 331.478627,270.157142 333.140882,269.58564 C334.803137,269.014138 336.417899,268.323573 337.985168,267.513945 C339.552437,266.704317 340.905988,265.918502 342.04582,265.156499 C343.47061,264.775498 344.871654,264.418309 346.248951,264.084933 C347.626248,263.751557 348.884812,263.203867 350.024644,262.441864 L350.024644,262.441864 L353.016703,259.441479 C354.156535,258.298475 355.272621,257.250721 356.36496,256.298218 C357.457299,255.345714 358.430906,254.559899 359.28578,253.940772 C360.140654,253.321645 360.663077,253.059706 360.853049,253.154957 C361.992881,252.392954 362.990234,251.24995 363.845108,249.725945 C364.699982,248.201939 365.38863,246.535058 365.911053,244.725302 C366.433476,242.915546 366.765927,241.034352 366.908406,239.08172 C367.050885,237.129088 367.027139,235.295519 366.837167,233.581013 C366.647195,232.247508 366.33849,230.961629 365.911053,229.723374 C365.483616,228.48512 365.056179,227.223053 364.628742,225.937173 C364.201305,224.651294 363.821361,223.341602 363.48891,222.008097 C363.156459,220.674592 363.08522,219.293462 363.275192,217.864707 C360.805556,213.292691 358.597131,208.458737 356.649918,203.362844 L356.157673,202.093335 C354.33282,197.454843 352.288477,192.996432 350.024644,188.718105 C350.309602,188.146603 350.452081,187.3846 350.452081,186.432097 C350.357095,185.765344 350.048391,185.384343 349.525968,185.289093 C349.003545,185.193842 348.742333,184.765216 348.742333,184.003213 C349.787179,183.526961 350.475828,182.622083 350.808279,181.288579 C351.14073,179.955074 351.54442,178.716819 352.01935,177.573815 C351.829378,176.811813 351.61566,176.216498 351.378195,175.787872 C351.14073,175.359245 350.927011,174.930619 350.737039,174.501992 C350.547067,174.073366 350.357095,173.620927 350.167123,173.144675 C349.977151,172.668423 349.787179,172.001671 349.597207,171.144418 C349.217263,171.049167 348.956052,171.096793 348.813573,171.287293 C348.671094,171.477794 348.409882,171.573044 348.029938,171.573044 C347.839966,170.525291 347.460022,169.69185 346.890106,169.072723 C346.32019,168.453596 345.702781,167.882094 345.037879,167.358217 C344.372977,166.83434 343.779314,166.239026 343.256891,165.572273 C342.734468,164.905521 342.425764,163.953017 342.330778,162.714763 C341.285932,161.476509 340.003621,160.738319 338.483845,160.500193 C336.964069,160.262067 335.586772,159.762003 334.351954,159 C333.02215,160.047754 332.024797,161.000257 331.359895,161.85751 C330.694993,162.714763 329.935104,163.953017 329.08023,165.572273 C328.035384,165.762774 327.228003,165.834212 326.658087,165.786586 C326.088171,165.738961 325.328283,165.810399 324.378423,166.0009 C323.143605,167.810656 322.098759,169.310849 321.243885,170.501478 C320.389011,171.692107 319.011714,172.811299 317.111994,173.859052 L317.111994,173.859052 L317.111994,175.716434 C316.25712,176.002185 315.520978,176.406999 314.903569,176.930876 C314.28616,177.454753 313.692498,178.002442 313.122582,178.573944 C312.552666,179.145446 311.935257,179.693135 311.270355,180.217012 C310.605453,180.740889 309.845565,181.098078 308.990691,181.288579 C308.610747,182.145832 308.135817,182.860209 307.565901,183.431711 C306.995985,184.003213 306.402322,184.574715 305.784913,185.146217 C305.167504,185.717719 304.573842,186.313034 304.003926,186.932161 C303.43401,187.551288 302.959079,188.289478 302.579135,189.146731 C302.009219,189.337232 301.558036,189.670608 301.225585,190.14686 C300.893134,190.623111 300.560683,191.099363 300.228232,191.575615 C299.895781,192.051866 299.539583,192.45668 299.159639,192.790057 C298.779695,193.123433 298.304765,193.147245 297.734849,192.861494 C294.980255,196.576257 292.130675,200.457709 289.186109,204.505848 C286.241543,208.553987 283.605681,212.91169 281.278524,217.578956 C278.951367,222.246223 277.17038,227.342116 275.935561,232.866635 C274.700743,238.391155 274.463278,244.534801 275.223166,251.297575 C276.362998,254.536087 277.835282,257.584097 279.640016,260.441607 C281.44475,263.299117 283.558188,265.775626 285.980331,267.871134 C288.402474,269.966641 291.180815,271.490646 294.315353,272.44315 C297.449891,273.395653 300.869387,273.586154 304.573842,273.014652 Z M309.978522,247.137637 C307.728304,247.421313 305.525963,247.374034 303.371499,246.995798 C301.217035,246.617563 299.373772,245.624696 297.841709,244.017196 C297.937462,241.180432 298.344417,238.698263 299.062571,236.57069 C299.780726,234.443117 300.642512,232.433743 301.647928,230.542567 C302.653345,228.651391 303.6827,226.807494 304.735993,225.010877 C305.789287,223.214259 306.698949,221.181245 307.464981,218.911834 C307.94375,218.628158 308.231012,218.557238 308.326766,218.699077 C308.42252,218.840915 308.661905,218.769996 309.044921,218.486319 C311.151508,215.082202 313.545357,212.07996 316.226467,209.479593 C318.907578,206.879226 321.588689,204.20794 324.269799,201.465735 C325.323093,202.411323 326.448202,202.978676 327.645126,203.167793 C328.84205,203.356911 329.679897,202.505882 330.158667,200.614706 C330.733191,201.276617 331.259838,201.371176 331.738607,200.898382 C332.217377,200.425588 332.552516,199.952794 332.744024,199.48 C334.659103,203.073235 336.358736,206.973785 337.842922,211.181652 C339.327108,215.389519 341.074618,219.290069 343.085451,222.883304 C343.085451,224.112568 343.133328,224.987237 343.229082,225.50731 C343.324835,226.027384 343.56422,226.807494 343.947236,227.847641 C343.947236,229.45514 343.636036,230.684405 343.013635,231.535434 C342.391234,232.386463 341.888526,233.42661 341.50551,234.655875 C338.441384,236.641609 335.49695,238.603705 332.672208,240.54216 C329.847467,242.480616 326.855156,243.638961 323.695275,244.017196 C323.024998,243.922637 322.689859,244.300873 322.689859,245.151902 C320.870534,245.246461 318.859701,245.530137 316.65736,246.002931 C314.455019,246.475725 312.22874,246.85396 309.978522,247.137637 Z" id="2020"></path>
        <path d="M13.6888438,124.507042 C21.0555308,121.103411 28.6146313,117.891919 36.3661453,114.872569 C44.1176592,111.853218 51.5668092,108.531932 58.7135951,104.908712 C65.860381,101.285491 72.4574142,97.1132971 78.5046946,92.3921306 C84.551975,87.6709641 89.5547251,81.8518519 93.512945,74.9347939 L93.512945,74.9347939 L93.512945,72.629108 C93.512945,72.0801351 93.5679203,71.5860596 93.6778709,71.1468813 C93.7878214,70.707703 93.897772,70.2685247 94.0077225,69.8293464 C94.1176731,69.3901682 94.2825989,68.8411953 94.5025,68.1824279 C94.0626978,61.1555754 92.4684148,55.0619768 89.719651,49.901632 C86.9708871,44.7412872 83.5349324,40.1573639 79.4117866,36.1498621 C75.2886409,32.1423603 70.725693,28.4642422 65.7229428,25.1155079 C60.7201927,21.7667735 55.8548807,18.3905905 51.127007,14.9869588 C48.0483915,14.2183968 44.9148008,13.202797 41.7262347,11.9401595 C38.5376687,10.6775219 35.2941274,9.35998708 31.9956108,7.98755496 C28.6970942,6.61512284 25.3436024,5.21524207 21.9351353,3.78791266 C18.5266681,2.36058325 15.0632257,1.0979457 11.544808,0 C10.6652036,1.53712398 10.0604756,3.23893981 9.73062391,5.1054475 C9.40077225,6.97195519 8.79604421,8.89336016 7.91643979,10.8696624 C8.57614311,13.3949375 9.26333406,15.6182776 9.97801265,17.5396825 C10.6926912,19.4610875 11.0500305,21.4099411 11.0500305,23.3862434 L11.0500305,23.3862434 L8.41121728,23.3862434 C7.53161286,23.3862434 7.2017612,23.880319 7.4216623,24.8684701 C7.64156341,25.3076484 7.64156341,25.8291726 7.4216623,26.4330427 C7.2017612,27.0369128 7.03683537,27.942718 6.92688482,29.1504583 C8.46619255,34.7499814 9.56569808,40.84358 10.2254014,47.4312542 C10.8851047,54.0189284 10.7751542,60.4419107 9.89554974,66.7002012 C9.23584642,67.0295849 8.57614311,67.6883523 7.91643979,68.6765035 C7.58658813,72.1899297 6.92688482,75.5935614 5.93732984,78.8873985 C4.94777487,82.1812356 3.84826934,85.5848672 2.63881326,89.0982935 C2.74876382,90.8550066 2.4463998,92.2274387 1.7317212,93.2155898 C1.01704261,94.203741 0.439802211,95.4114812 0,96.8388106 C0.329851658,100.022853 0.632215678,103.097101 0.907092059,106.061555 C1.18196844,109.026008 1.7317212,111.743424 2.55635035,114.213801 C3.38097949,116.684179 4.64541085,118.825173 6.34964442,120.636784 C8.05387798,122.448394 10.5002778,123.73848 13.6888438,124.507042 Z M29.4576064,87.8873239 C30.4727128,82.3783049 31.26224,77.2627872 31.8261879,72.5407709 C32.3901359,67.8187546 32.6439125,63.2091673 32.5875177,58.7120089 C32.5311229,54.2148505 32.1645567,49.7176921 31.4878191,45.2205337 C30.8110816,40.7233753 29.7959752,35.9451446 28.4425,30.8858414 C28.8936584,30.4361255 29.6267908,30.2112676 30.6418972,30.2112676 C31.8825827,31.3355572 33.6872163,32.2068816 36.0557979,32.8252409 C38.4243794,33.4436002 41.074935,34.5397826 44.0074645,36.113788 C45.9248877,36.226217 47.5885343,36.6197183 48.9984043,37.2942921 C50.4082742,37.9688658 51.733552,38.6715468 52.9742376,39.4023351 C54.2149232,40.1331233 55.5120035,40.8639115 56.8654787,41.5946998 C58.2189539,42.325488 59.7980083,42.8033111 61.6026418,43.028169 C62.392169,44.7146034 63.4354728,46.2042871 64.7325532,47.4972202 C66.0296336,48.7901532 67.3831087,50.0268718 68.7929787,51.2073758 C70.2028487,52.3878799 71.5563239,53.568384 72.8534043,54.7488881 C74.1504846,55.9293921 75.2501832,57.3628614 76.1525,59.0492958 C74.9118144,61.8600198 73.33276,64.2772424 71.4153369,66.3009637 C69.4979137,68.324685 67.3549113,70.1235483 64.9863298,71.6975537 C62.6177482,73.2715592 60.0235875,74.6769212 57.2038475,75.9136397 C54.3841076,77.1503583 51.5643676,78.3308624 48.7446277,79.455152 C48.1806797,80.0172968 47.5321395,80.5513343 46.7990071,81.0572646 C46.0658747,81.563195 45.4737293,82.265876 45.0225709,83.1653076 C43.330727,83.2777366 41.8362648,83.558809 40.5391844,84.0085248 C39.242104,84.4582407 38.0014184,84.964171 36.8171277,85.5263158 C35.6328369,86.0884606 34.4767435,86.5943909 33.3488475,87.0441067 C32.2209515,87.4938226 30.9238712,87.774895 29.4576064,87.8873239 Z M119.737928,126.304588 C123.414613,126.416055 127.03559,126.248855 130.600861,125.802988 C134.166131,125.357122 137.230035,124.855522 139.792573,124.298189 C140.68389,124.298189 141.463793,124.437522 142.132281,124.716189 C142.80077,124.994855 143.63638,125.022722 144.639112,124.799789 C148.761456,124.019522 152.521702,123.350723 155.91985,122.79339 C159.317998,122.236057 162.409756,121.45579 165.195123,120.452591 C167.98049,119.449391 170.459467,117.972458 172.632054,116.021792 C174.80464,114.071127 176.726544,111.256594 178.397764,107.578196 C177.729276,107.689662 177.255764,107.550329 176.977227,107.160196 C176.69869,106.770063 176.503714,106.29633 176.3923,105.738997 C176.280885,105.181664 176.141617,104.596464 175.974495,103.983397 C175.807372,103.370331 175.500982,102.840864 175.055323,102.394998 C174.052591,102.506465 173.216981,102.283531 172.548493,101.726198 C171.880005,101.168865 171.23937,100.527932 170.626589,99.8033991 C170.013808,99.078866 169.373174,98.2985997 168.704686,97.4626 C168.036198,96.6266004 167.256295,96.0414006 166.364977,95.7070007 C163.802439,96.5987337 160.989218,97.2396668 157.925314,97.6297999 C154.86141,98.0199331 152.215311,98.8280661 149.987017,100.054199 C146.421747,99.9427323 143.469258,100.026332 141.129549,100.304999 C138.789841,100.583665 136.505839,100.862332 134.277546,101.140999 C132.049252,101.419665 129.681689,101.614732 127.174859,101.726198 C124.668028,101.837665 121.520563,101.614732 117.732464,101.057399 C118.846611,98.0477998 120.127879,95.2054009 121.57627,92.530202 C123.024662,89.8550031 124.640175,87.3470042 126.42281,85.0062051 C127.759786,85.4520716 129.291738,85.6471382 131.018666,85.5914049 C132.745594,85.5356716 134.221838,85.7864715 135.4474,86.3438046 C136.338717,85.7864715 137.592133,85.6192715 139.207646,85.8422048 C140.823159,86.065138 142.076574,85.8979381 142.967892,85.340605 C143.41355,85.6750049 143.775648,85.8422048 144.054185,85.8422048 L144.054185,85.8422048 L145.3076,85.8422048 C147.981553,85.9536714 150.404822,85.7028715 152.577409,85.0898051 C154.749995,84.4767387 156.811167,83.6686057 158.760924,82.6654061 C160.710682,81.6622065 162.576878,80.5196736 164.359513,79.2378075 C166.142148,77.9559414 167.924783,76.7019419 169.707418,75.475809 C170.153077,74.3611428 170.292345,73.2743433 170.125223,72.2154104 C169.958101,71.1564775 169.651711,70.1811445 169.206052,69.2894116 C168.091905,69.4008782 167.117026,69.2058116 166.281416,68.7042118 C165.445806,68.202612 164.638049,67.5616789 163.858147,66.7814126 C163.078244,66.0011463 162.298341,65.1930133 161.518438,64.3570136 C160.738535,63.5210139 159.958632,62.8243476 159.17873,62.2670145 C159.067315,61.821148 159.123022,61.5146148 159.345852,61.3474148 C159.568681,61.1802149 159.624388,60.8179484 159.512974,60.2606153 C154.944971,60.3720819 150.293408,60.6507485 145.558283,61.0966149 C140.823159,61.5424814 136.505839,61.5982147 132.606325,61.2638149 C132.272081,60.5950151 132.132813,59.7311488 132.18852,58.6722159 C132.244227,57.613283 132.049252,56.5822168 131.603593,55.5790172 C132.606325,55.2446173 133.609057,54.9380841 134.61179,54.6594176 C135.614522,54.380751 136.450132,53.9070179 137.11862,53.2382182 C139.346914,53.4611514 141.045988,53.2939515 142.215842,52.7366184 C143.385697,52.1792853 144.694819,52.1792853 146.14321,52.7366184 C149.819895,50.5072859 153.524434,49.0582199 157.256826,48.3894201 C160.989218,47.7206204 164.638049,47.0796874 168.20332,46.4666209 C171.76859,45.8535545 175.083177,44.8503549 178.147081,43.4570222 C181.210985,42.0636894 183.912791,39.4720905 186.2525,35.6822254 C186.029671,34.901959 185.918256,34.3167593 185.918256,33.9266261 C185.918256,33.5364929 185.94611,33.1742264 186.001817,32.8398265 C186.057524,32.5054267 186.113232,32.1431601 186.168939,31.753027 C186.224646,31.3628938 186.196793,30.777694 186.085378,29.9974277 C183.968499,29.1056947 182.046595,28.0188952 180.319668,26.737029 C178.59274,25.4551629 177.172202,23.8667635 176.058056,21.971831 C176.16947,22.9750306 175.918787,23.2815638 175.306006,22.8914306 C174.693226,22.5012974 174.164006,22.8078306 173.718347,23.8110302 C172.827029,23.8110302 171.880005,23.3094304 170.877272,22.3062308 C166.197855,23.1979638 162.019804,23.8667635 158.343119,24.31263 C154.666434,24.7584965 151.129018,25.2322296 147.73087,25.7338294 C144.332722,26.2354292 140.878866,26.8763623 137.369303,27.6566287 C133.85974,28.436895 129.876665,29.5515612 125.420077,31.0006273 C122.968954,31.5579604 120.629246,32.0595602 118.400952,32.5054267 C116.172658,32.9512931 114.111486,33.5086263 112.217436,34.177426 C110.323386,34.8462257 108.568605,35.710092 106.953092,36.7690249 C105.337579,37.8279578 103.972749,39.1934239 102.858602,40.8654232 C103.415675,42.7603558 103.805627,44.6274217 104.028456,46.4666209 C104.251286,48.3058202 104.529822,50.0892861 104.864066,51.8170187 C105.198311,53.5447514 105.72753,55.272484 106.451726,57.0002166 C107.175921,58.7279492 108.317922,60.3163486 109.877728,61.7654147 C109.097825,63.8832805 108.290068,65.8060797 107.454458,67.5338123 C106.618848,69.2615449 105.783238,70.9614109 104.947628,72.6334102 C104.112017,74.3054095 103.304261,76.0331421 102.524358,77.8166081 C101.744455,79.600074 101.02026,81.4950066 100.351771,83.5014057 C99.5718685,83.3899391 99.1262098,83.5850057 99.0147951,84.0866055 C98.9033804,84.5882053 98.5691363,84.8947385 98.0120628,85.0062051 C98.3463069,86.5667378 97.9842092,88.0158039 96.9257696,89.3534033 C95.86733,90.6910028 95.1709882,92.1958022 94.8367441,93.8678015 C94.5025,95.4283342 94.418939,97.1560668 94.586061,99.0509994 C94.7531831,100.945932 95.0038661,102.868731 95.3381102,104.819397 C95.6723543,106.770063 96.0065984,108.637129 96.3408424,110.420595 C96.6750865,112.204061 96.8979159,113.820327 97.0093306,115.269393 C98.2348922,115.826726 98.9869414,116.634859 99.2654781,117.693792 C99.5440149,118.752725 100.128942,119.672324 101.02026,120.452591 C103.137139,122.570456 105.866799,124.047389 109.20924,124.883389 C112.55168,125.719388 116.061243,126.193122 119.737928,126.304588 Z M247.173914,126.338028 C249.513099,126.227059 251.740895,125.672215 253.8573,124.673496 C255.973706,123.674776 257.89518,122.426376 259.621721,120.928297 C261.348263,119.430218 262.852025,117.710201 264.133007,115.768246 C265.41399,113.826291 266.38865,111.912079 267.056989,110.025608 L267.056989,110.025608 L267.391158,109.359795 C267.613938,107.251387 267.613938,105.198464 267.391158,103.201024 C267.168379,101.203585 266.889904,99.2616304 266.555735,97.3751601 C266.332955,96.709347 266.193718,96.0712761 266.138023,95.4609475 C266.082328,94.8506189 265.998786,94.212548 265.887396,93.546735 C268.449361,92.3260777 270.760699,90.8002561 272.82141,88.9692702 C274.882121,87.1382843 276.469425,85.2240717 277.583323,83.2266325 L277.583323,83.2266325 L278.92,80.7298335 L276.41373,79.731114 C275.968171,79.5091763 275.522612,79.1762697 275.077053,78.7323944 C274.520104,78.1775501 273.90746,77.6504481 273.239121,77.1510883 C272.570783,76.6517286 271.51258,76.3465642 270.064513,76.2355954 C269.062005,75.6807512 268.505056,75.125907 268.393666,74.5710627 L268.393666,74.5710627 L267.725327,72.9065301 L265.887396,73.0729834 C265.107668,73.1839522 264.411482,73.294921 263.798838,73.4058899 C263.186194,73.5168587 262.601398,73.683312 262.044449,73.9052497 C261.821669,73.7942808 261.26472,73.7387964 260.373602,73.7387964 C259.482484,71.5194195 258.75845,69.1613316 258.201502,66.6645327 C257.644553,64.1677337 257.087604,61.5877081 256.530655,58.9244558 C256.196486,57.0379855 255.834469,55.1792574 255.444605,53.3482714 C255.05474,51.5172855 254.581334,49.6585574 254.024385,47.7720871 C253.912995,45.4417414 253.718063,43.3333333 253.439589,41.446863 C253.161114,39.5603927 252.854792,37.6739223 252.520623,35.787452 C252.297843,34.8997012 252.130759,34.0119505 252.019369,33.1241997 C251.907979,32.236449 251.518115,30.9048229 250.849776,29.1293214 C249.735879,28.0196329 248.287812,27.1873666 246.505575,26.6325224 C244.723339,26.0776782 242.829712,25.5783184 240.824696,25.134443 C239.710799,24.8015365 238.652596,24.4963722 237.650088,24.2189501 C236.64758,23.941528 235.867851,23.6363636 235.310903,23.3034571 L235.310903,23.3034571 L233.138802,21.971831 L231.467955,24.3021767 C229.01738,27.9641485 226.6225,31.0990184 224.283315,33.7067862 C221.944129,36.314554 219.21508,38.3397354 216.096166,39.7823303 L216.096166,39.7823303 L213.589896,39.4494238 C213.032947,39.4494238 212.531693,39.5326504 212.086134,39.6991037 C211.640575,39.865557 211.250711,40.004268 210.916542,40.1152369 L210.916542,40.1152369 L208.243187,41.2804097 C206.79512,43.1668801 205.59768,44.997866 204.650867,46.7733675 C203.704054,48.548869 202.785088,50.3798549 201.89397,52.2663252 C201.114241,53.819889 200.334513,55.3457106 199.554784,56.84379 C198.775056,58.3418694 197.772548,60.0341443 196.54726,61.9206146 C196.324481,62.4754588 196.213091,62.9748186 196.213091,63.418694 C196.213091,63.8625694 196.268786,64.2509603 196.380176,64.5838668 C195.489058,66.3593683 194.625787,68.1348698 193.790363,69.9103713 L192.945658,71.6858728 C192.376332,72.8695405 191.79463,74.0532081 191.200551,75.2368758 C188.527196,80.6743491 185.937384,86.0008536 183.431114,91.2163892 C180.924844,96.4319249 178.557812,101.869398 176.330016,107.528809 L176.330016,107.528809 L176.162931,110.358515 L174.325,111.856594 L176.497101,113.854033 C176.71988,114.075971 176.859117,114.408878 176.914812,114.852753 C176.970507,115.296628 177.109744,115.851472 177.332524,116.517286 C177.443914,117.07213 177.555304,117.682458 177.666693,118.348271 C177.778083,119.014085 178.335032,120.012804 179.33754,121.34443 C180.228658,121.899274 181.008387,122.481861 181.676725,123.09219 C182.345064,123.702518 183.291877,124.507042 184.517165,125.505762 L184.517165,125.505762 L186.188011,125.672215 C186.85635,125.672215 187.441146,125.616731 187.9424,125.505762 C188.443654,125.394793 189.306925,125.22834 190.532212,125.006402 L190.532212,125.006402 L192.537228,124.673496 L193.038482,122.84251 C193.261262,122.731541 193.567584,122.59283 193.957448,122.426376 C194.347312,122.259923 194.653634,122.065728 194.876414,121.84379 C195.544752,121.510883 196.213091,121.150235 196.88143,120.761844 C197.549768,120.373453 198.162412,119.846351 198.719361,119.180538 L198.719361,119.180538 L199.3877,117.349552 C199.27631,116.017926 199.415547,114.658557 199.805411,113.271447 C200.195276,111.884336 200.668682,110.469484 201.225631,109.026889 C201.5598,108.139138 201.89397,107.195903 202.228139,106.197183 C202.562308,105.198464 202.840783,104.199744 203.063562,103.201024 C203.286342,102.979087 203.509121,102.784891 203.731901,102.618438 C203.954681,102.451985 204.17746,102.257789 204.40024,102.035851 L204.40024,102.035851 L205.235663,99.206146 C205.235663,98.9842083 205.291358,98.679044 205.402748,98.290653 C205.514137,97.9022621 205.681222,97.6525822 205.904002,97.5416133 L205.904002,97.5416133 L207.574848,97.2087068 L208.243187,95.5441741 C208.577356,94.1015792 209.07861,92.7144686 209.746949,91.3828425 C209.858339,92.3815621 210.192508,93.3802817 210.749457,94.3790013 C210.415288,95.8215962 210.554525,97.0145113 211.167169,97.9577465 C211.779812,98.9009816 212.364609,99.6500213 212.921558,100.204866 C213.144337,100.426803 213.367117,100.620999 213.589896,100.787452 C213.812676,100.953905 214.035455,101.647461 214.258235,102.868118 L214.258235,102.868118 L215.929081,103.201024 C216.8202,103.311993 217.655623,103.39522 218.435351,103.450704 C219.21508,103.506189 220.050503,103.533931 220.941621,103.533931 C223.392196,103.533931 225.647839,103.339735 227.70855,102.951344 C229.769261,102.562953 231.802125,102.091336 233.807141,101.536492 C235.366597,101.092616 236.898207,100.704225 238.401969,100.371319 C239.905731,100.038412 241.77151,100.093897 243.999305,100.537772 C244.222085,103.422962 243.860068,105.475886 242.913255,106.696543 C241.966442,107.9172 240.100663,108.91592 237.315919,109.692702 L237.315919,109.692702 L232.804633,110.857875 L235.645072,114.020487 C235.867851,114.353393 236.146326,114.6863 236.480495,115.019206 L236.480495,115.019206 L237.483003,116.017926 C238.485511,116.905676 239.15385,117.599232 239.488019,118.098592 C239.822188,118.597951 239.877883,119.291507 239.655104,120.179257 L239.655104,120.179257 L238.986765,122.34315 L240.991781,123.175416 C241.214561,123.286385 241.465188,123.425096 241.743662,123.591549 C242.022137,123.758003 242.328458,123.952198 242.662628,124.174136 C243.219577,124.507042 243.748678,124.867691 244.249932,125.256082 C244.751186,125.644473 245.725847,126.005122 247.173914,126.338028 Z M214.695,81.4788732 C215.255305,80.4731204 215.871641,79.4673676 216.544008,78.4616148 L216.544008,78.4616148 L218.561107,75.4443563 C220.017901,72.8740991 221.782863,70.1362164 223.855992,67.2307082 C225.929122,64.3252 228.086298,61.6990676 230.327519,59.352311 L230.327519,59.352311 L231.336069,57.6760563 C232.344618,61.2520664 233.297137,64.856014 234.193626,68.4878992 C235.090115,72.1197844 235.930573,75.6119817 236.715,78.9644912 C233.353168,79.6349931 230.299504,80.1099319 227.554008,80.3893077 C224.808511,80.6686835 221.754847,80.9201217 218.393015,81.1436223 C217.83271,81.2553726 217.244389,81.3112478 216.628053,81.3112478 C216.011718,81.3112478 215.367366,81.3671229 214.695,81.4788732 Z M347.112477,129.179906 C352.348968,130.351469 356.694141,130.267786 360.147996,128.928857 C361.150729,128.817279 361.930631,128.510441 362.487705,128.008343 C363.044778,127.506244 363.546145,126.920462 363.991803,126.250998 L363.991803,126.250998 L365.32878,124.242604 C365.774438,123.573139 366.331512,123.015252 367,122.568942 C366.554341,122.457365 366.136536,122.42947 365.746585,122.485259 C365.356633,122.541048 365.10595,122.401576 364.994536,122.066843 C365.663024,121.285801 366.052975,120.25371 366.16439,118.970569 C366.275804,117.687429 366.220097,116.348499 365.997268,114.953781 C365.774438,113.559063 365.300926,112.164345 364.57673,110.769627 C363.852535,109.374909 362.989071,108.175451 361.986339,107.171254 C359.423801,106.948099 357.44619,106.752839 356.053506,106.585473 C354.660823,106.418106 353.295993,106.194952 351.959016,105.916008 C350.62204,105.637064 349.145795,105.302332 347.530282,104.911811 C345.914769,104.52129 343.658622,103.991297 340.76184,103.321832 C337.865058,102.652368 335.60891,102.066586 333.993397,101.564487 C332.377884,101.062389 330.873786,100.476607 329.481102,99.8071427 C328.088418,99.137678 326.612174,98.3008471 325.052368,97.2966501 C323.492562,96.2924531 321.375683,94.9535237 318.70173,93.279862 C318.813145,92.7219747 318.673877,92.4430311 318.283925,92.4430311 C317.893974,92.4430311 317.698998,92.2198762 317.698998,91.7735664 C321.375683,90.2114822 325.498027,88.7609754 330.066029,87.422046 C334.634032,86.0831166 338.923497,84.4373493 342.934426,82.4847439 C346.945355,80.5321386 350.371357,78.0495404 353.212432,75.0369493 C356.053506,72.0243582 357.641166,68.0633588 357.97541,63.1539511 C358.086825,62.372909 358.086825,61.759233 357.97541,61.3129232 C357.863995,60.8666135 357.724727,60.4203037 357.557605,59.9739939 C357.390483,59.5276841 357.306922,59.1092687 357.306922,58.7187476 C357.306922,58.3282265 357.418336,57.8540224 357.641166,57.2961351 C356.749848,55.6224734 355.969945,53.8651286 355.301457,52.0241007 L355.301457,52.0241007 L353.295993,46.5010171 C352.627505,44.6599892 351.875455,42.9305387 351.039845,41.3126658 C350.204235,39.6947928 349.117942,38.2721803 347.780965,37.0448284 L347.780965,37.0448284 L347.780965,35.0364343 C346.889648,34.4785471 346.137599,33.9485542 345.524818,33.4464557 C344.912037,32.9443572 344.159988,32.470153 343.26867,32.0238432 C341.486035,29.2344071 339.229888,26.9749637 336.500228,25.2455133 C333.770568,23.5160629 331.291591,21.8145068 329.063297,20.1408451 C324.718124,20.5871549 321.125,21.981873 318.283925,24.3249994 C315.442851,26.6681258 312.852459,29.3459845 310.51275,32.3585756 C308.173042,35.3711667 305.889041,38.4674408 303.660747,41.6473981 C301.432453,44.8273554 298.869915,47.5331085 295.973133,49.7646574 C295.638889,48.9836153 294.719718,48.342045 293.215619,47.8399464 C291.711521,47.3378479 290.346691,47.1983761 289.121129,47.421531 C288.006982,49.8762349 287.115665,52.5540936 286.447177,55.4551072 C285.778689,58.3561209 285.138054,61.3129232 284.525273,64.3255143 C283.912492,67.3381054 283.244004,70.3785909 282.519809,73.4469707 C281.795613,76.5153505 280.876442,79.5000472 279.762295,82.4010608 C279.87371,82.9589481 279.929417,83.6563071 279.929417,84.493138 C279.929417,85.3299688 279.87371,86.1667997 279.762295,87.0036306 C279.65088,87.8404614 279.483758,88.5099261 279.260929,89.0120246 C279.0381,89.5141231 278.703855,89.5978062 278.258197,89.2630739 C278.926685,90.9367356 279.093807,92.5546086 278.759563,94.1166928 C278.425319,95.6787771 278.007514,97.2408614 277.506148,98.8029456 C277.004781,100.36503 276.586976,102.038692 276.252732,103.823931 C275.918488,105.60917 275.584244,107.505987 275.25,109.514381 C275.695659,110.295423 276.08561,111.076465 276.419854,111.857507 C276.754098,112.638549 277.199757,113.02907 277.756831,113.02907 C277.534001,113.810112 277.478294,114.451683 277.589709,114.953781 C277.701123,115.45588 277.840392,115.957978 278.007514,116.460077 C278.174636,116.962175 278.313904,117.520062 278.425319,118.133738 C278.536733,118.747414 278.481026,119.500562 278.258197,120.393182 C279.483758,120.170027 280.235808,120.44897 280.514344,121.230013 C280.792881,122.011055 281.043564,122.847886 281.266393,123.740505 C282.269126,123.740505 283.021175,123.879977 283.522541,124.158921 C284.023907,124.437864 284.441712,124.716808 284.775956,124.995751 C285.1102,125.274695 285.500152,125.525744 285.945811,125.748899 C286.391469,125.972054 287.115665,125.972054 288.118397,125.748899 C288.786885,125.302589 289.399666,124.800491 289.95674,124.242604 C290.513813,123.684716 291.516545,123.51735 292.964936,123.740505 C294.858986,121.285801 296.279523,118.914781 297.226548,116.627443 C298.173573,114.340105 299.259866,110.964887 300.485428,106.50179 C302.602307,108.398606 304.412796,110.016479 305.916894,111.355409 C307.420993,112.694338 309.092213,113.949584 310.930556,115.121147 C312.768898,116.292711 314.941485,117.464274 317.448315,118.635837 C319.955146,119.8074 323.214026,121.174224 327.224954,122.736308 C335.246812,125.860477 341.875987,128.008343 347.112477,129.179906 Z M311.0325,69.5774648 C311.471213,67.1952143 312.23896,65.1107451 313.335741,63.3240572 C314.432523,61.5373694 315.666402,59.9131077 317.037379,58.4512721 C318.408356,56.9894366 319.834172,55.5546721 321.314828,54.1469786 C322.795483,52.7392852 324.13904,51.1691655 325.3455,49.4366197 C327.429385,50.0863244 329.431011,51.4398758 331.350379,53.497274 C333.269747,55.5546721 334.448787,58.261775 334.8875,61.6185825 C331.158443,63.13456 327.210029,64.7317507 323.042259,66.4101545 C318.874489,68.0885582 314.871236,69.1443283 311.0325,69.5774648 Z" id="Dear"></path>
    </g>
</svg>