<?xml version="1.0" standalone="no"?>
<!DOCTYPE svg PUBLIC "-//W3C//DTD SVG 20010904//EN"
 "http://www.w3.org/TR/2001/REC-SVG-20010904/DTD/svg10.dtd">
<svg version="1.0" xmlns="http://www.w3.org/2000/svg"
 width="800.000000pt" height="800.000000pt" viewBox="0 0 800.000000 800.000000"
 preserveAspectRatio="xMidYMid meet">
<metadata>
Created by potrace 1.11, written by Peter Selinger 2001-2013
</metadata>
<g transform="translate(0.000000,800.000000) scale(0.100000,-0.100000)"
fill="#000000" stroke="none">
<path d="M4004 7962 c-17 -21 -64 -86 -104 -147 -82 -123 -139 -188 -220 -250
-131 -101 -220 -120 -301 -65 -39 26 -45 28 -51 12 -4 -9 -80 -332 -168 -717
-89 -385 -202 -863 -251 -1063 -223 -903 -474 -1662 -753 -2275 -286 -630
-536 -1026 -910 -1442 -159 -177 -201 -276 -177 -411 40 -217 318 -523 706
-776 299 -196 726 -418 1306 -682 l326 -148 129 61 c190 91 354 195 554 350
99 76 162 131 475 411 127 113 318 283 426 377 l196 172 16 64 c47 193 136
374 331 676 178 276 219 347 356 616 133 262 158 304 210 360 57 60 82 107
145 266 82 209 85 216 115 246 16 16 52 37 82 48 58 23 91 61 109 128 13 49 6
90 -26 159 -32 68 -31 120 2 210 22 59 38 84 84 128 85 82 103 131 114 315 10
156 43 402 66 484 24 90 62 173 99 215 l27 31 -32 205 c-18 113 -45 309 -60
435 -30 264 -61 416 -115 565 -44 124 -116 287 -170 385 l-39 71 -78 18 c-313
72 -1463 522 -2008 785 -159 77 -330 176 -355 206 -17 20 -20 19 -56 -23z"/>
</g>
</svg>
